<svg id="圖層_1" data-name="圖層 1" xmlns="http://www.w3.org/2000/svg" viewBox="0 0 51.02 8.26"><defs><style>.cls-1{fill:#fff;}.cls-2{fill:#ea0029;}</style></defs><path class="cls-1" d="M13.69,5.69A2.69,2.69,0,0,0,16.37,3,2.62,2.62,0,0,0,13.69.41H6.78L8.05,1.89h5.64A1.14,1.14,0,0,1,14.89,3a1.21,1.21,0,0,1-1.2,1.21H10.05l3.82,4.45h2l-2.55-3Z" transform="translate(-0.28 -0.4)"/><rect class="cls-1" x="17.61" width="1.53" height="8.26"/><polygon class="cls-1" points="32.54 6.78 32.54 5.3 37.56 5.3 36.29 3.81 32.54 3.81 32.54 1.48 40.1 1.48 40.1 0 31.01 0 31.01 8.26 40.1 8.26 38.83 6.78 32.54 6.78"/><path class="cls-1" d="M25.17.41H21l1.27,1.48h2.94c1.72,0,3.1.93,3.1,2.64s-1.39,2.65-3.11,2.65H22.49v-3H21V8.67h4.2c2.53,0,4.6-1.6,4.6-4.14S27.71.41,25.17.41Z" transform="translate(-0.28 -0.4)"/><polygon class="cls-2" points="4.45 0 0 0 1.26 1.48 5.71 1.48 4.45 0"/><polygon class="cls-1" points="48.98 8.26 51.02 8.26 43.93 0 41.63 0 41.63 8.26 43.16 8.26 43.16 6.78 45.75 6.78 44.47 5.3 43.16 5.3 43.16 1.48 48.98 8.26"/></svg>